<?xml version="1.0" encoding="UTF-8" standalone="no"?>
<!-- Created with Inkscape (http://www.inkscape.org/) -->

<svg
   xmlns:dc="http://purl.org/dc/elements/1.1/"
   xmlns:cc="http://creativecommons.org/ns#"
   xmlns:rdf="http://www.w3.org/1999/02/22-rdf-syntax-ns#"
   xmlns:svg="http://www.w3.org/2000/svg"
   xmlns="http://www.w3.org/2000/svg"
   xmlns:xlink="http://www.w3.org/1999/xlink"
   xmlns:sodipodi="http://sodipodi.sourceforge.net/DTD/sodipodi-0.dtd"
   xmlns:inkscape="http://www.inkscape.org/namespaces/inkscape"
   width="613.24805"
   height="241.03044"
   id="svg2"
   version="1.1"
   inkscape:version="0.48.2 r9819"
   sodipodi:docname="ds4.svg"
   inkscape:export-filename="/home/olivier/Images/Creations/ds4.png"
   inkscape:export-xdpi="90"
   inkscape:export-ydpi="90">
  <title
     id="title4234">Voiture Citro  n DS4</title>
  <defs
     id="defs4">
    <linearGradient
       inkscape:collect="always"
       id="linearGradient4209">
      <stop
         style="stop-color:#4d4d4d;stop-opacity:1;"
         offset="0"
         id="stop4211" />
      <stop
         style="stop-color:#4d4d4d;stop-opacity:0;"
         offset="1"
         id="stop4213" />
    </linearGradient>
    <linearGradient
       id="linearGradient4197">
      <stop
         style="stop-color:#d40000;stop-opacity:1;"
         offset="0"
         id="stop4199" />
      <stop
         id="stop4205"
         offset="0.63895059"
         style="stop-color:#cb0000;stop-opacity:1;" />
      <stop
         style="stop-color:#ba0000;stop-opacity:1;"
         offset="1"
         id="stop4201" />
    </linearGradient>
    <linearGradient
       id="linearGradient4181">
      <stop
         style="stop-color:#000000;stop-opacity:1;"
         offset="0"
         id="stop4183" />
      <stop
         style="stop-color:#2d2929;stop-opacity:1;"
         offset="1"
         id="stop4185" />
    </linearGradient>
    <linearGradient
       id="linearGradient4132">
      <stop
         style="stop-color:#1a1a1a;stop-opacity:1;"
         offset="0"
         id="stop4134" />
      <stop
         id="stop4140"
         offset="0.5"
         style="stop-color:#121212;stop-opacity:1;" />
      <stop
         style="stop-color:#181818;stop-opacity:1;"
         offset="1"
         id="stop4136" />
    </linearGradient>
    <linearGradient
       id="linearGradient4117">
      <stop
         style="stop-color:#b3b3b3;stop-opacity:1;"
         offset="0"
         id="stop4119" />
      <stop
         id="stop4125"
         offset="0.5"
         style="stop-color:#bfbfbf;stop-opacity:1;" />
      <stop
         style="stop-color:#777777;stop-opacity:1;"
         offset="1"
         id="stop4121" />
    </linearGradient>
    <linearGradient
       id="linearGradient4020">
      <stop
         style="stop-color:#4e4e50;stop-opacity:0.44680852;"
         offset="0"
         id="stop4022" />
      <stop
         style="stop-color:#2d2d37;stop-opacity:0.29787233;"
         offset="1"
         id="stop4024" />
    </linearGradient>
    <linearGradient
       id="linearGradient4004">
      <stop
         style="stop-color:#ff0000;stop-opacity:1;"
         offset="0"
         id="stop4006" />
      <stop
         style="stop-color:#c73333;stop-opacity:1;"
         offset="1"
         id="stop4008" />
    </linearGradient>
    <linearGradient
       id="linearGradient3970">
      <stop
         style="stop-color:#b31616;stop-opacity:1;"
         offset="0"
         id="stop3972" />
      <stop
         style="stop-color:#c00303;stop-opacity:1;"
         offset="1"
         id="stop3974" />
    </linearGradient>
    <linearGradient
       id="linearGradient3962">
      <stop
         style="stop-color:#e7e7e7;stop-opacity:1;"
         offset="0"
         id="stop3964" />
      <stop
         style="stop-color:#999999;stop-opacity:0;"
         offset="1"
         id="stop3966" />
    </linearGradient>
    <linearGradient
       id="linearGradient3954">
      <stop
         style="stop-color:#cccccc;stop-opacity:1;"
         offset="0"
         id="stop3956" />
      <stop
         style="stop-color:#e6e3e3;stop-opacity:1;"
         offset="1"
         id="stop3958" />
    </linearGradient>
    <radialGradient
       inkscape:collect="always"
       xlink:href="#linearGradient3954"
       id="radialGradient3960"
       cx="595.98999"
       cy="303.08154"
       fx="595.98999"
       fy="303.08154"
       r="37.118031"
       gradientTransform="matrix(1,0,0,0.45570791,0,164.96488)"
       gradientUnits="userSpaceOnUse" />
    <radialGradient
       inkscape:collect="always"
       xlink:href="#linearGradient3962"
       id="radialGradient3968"
       cx="609.75336"
       cy="304.59677"
       fx="609.75336"
       fy="304.59677"
       r="10.222718"
       gradientTransform="matrix(1,0,0,0.64179755,0,109.10731)"
       gradientUnits="userSpaceOnUse" />
    <radialGradient
       inkscape:collect="always"
       xlink:href="#linearGradient3970"
       id="radialGradient3976"
       cx="336.78571"
       cy="292.89789"
       fx="336.78571"
       fy="292.89789"
       r="9.6428576"
       gradientTransform="matrix(1,0,0,0.57407404,0,124.75282)"
       gradientUnits="userSpaceOnUse" />
    <radialGradient
       inkscape:collect="always"
       xlink:href="#linearGradient4004"
       id="radialGradient4010"
       cx="84.928719"
       cy="281.29077"
       fx="84.928719"
       fy="281.29077"
       r="28.285864"
       gradientTransform="matrix(1,0,0,0.5606032,0,123.59826)"
       gradientUnits="userSpaceOnUse" />
    <radialGradient
       inkscape:collect="always"
       xlink:href="#linearGradient4004"
       id="radialGradient4018"
       cx="63.570808"
       cy="364.50574"
       fx="63.570808"
       fy="364.50574"
       r="7.6434793"
       gradientTransform="matrix(1,0,0,0.85983294,0,51.091695)"
       gradientUnits="userSpaceOnUse" />
    <linearGradient
       inkscape:collect="always"
       xlink:href="#linearGradient4020"
       id="linearGradient4026"
       x1="76.64286"
       y1="240.57646"
       x2="130.14285"
       y2="240.57646"
       gradientUnits="userSpaceOnUse" />
    <linearGradient
       inkscape:collect="always"
       xlink:href="#linearGradient4020"
       id="linearGradient4028"
       x1="178.07143"
       y1="238.61218"
       x2="291.92856"
       y2="238.61218"
       gradientUnits="userSpaceOnUse" />
    <linearGradient
       inkscape:collect="always"
       xlink:href="#linearGradient4020"
       id="linearGradient4030"
       x1="354.35941"
       y1="235.14877"
       x2="502.58914"
       y2="235.14877"
       gradientUnits="userSpaceOnUse" />
    <linearGradient
       inkscape:collect="always"
       xlink:href="#linearGradient4020"
       id="linearGradient4032"
       x1="301.64285"
       y1="243.07333"
       x2="415.14285"
       y2="243.07333"
       gradientUnits="userSpaceOnUse" />
    <linearGradient
       inkscape:collect="always"
       xlink:href="#linearGradient4020"
       id="linearGradient4034"
       x1="416.97653"
       y1="259.05789"
       x2="456.36908"
       y2="259.05789"
       gradientUnits="userSpaceOnUse" />
    <radialGradient
       inkscape:collect="always"
       xlink:href="#linearGradient4132"
       id="radialGradient4173"
       gradientUnits="userSpaceOnUse"
       gradientTransform="translate(0,-6.5338555e-5)"
       cx="235.71426"
       cy="676.29077"
       fx="235.71426"
       fy="676.29077"
       r="51.752811" />
    <radialGradient
       inkscape:collect="always"
       xlink:href="#linearGradient4117"
       id="radialGradient4175"
       gradientUnits="userSpaceOnUse"
       cx="240.41631"
       cy="674.56512"
       fx="240.41631"
       fy="674.56512"
       r="20.197975" />
    <radialGradient
       inkscape:collect="always"
       xlink:href="#linearGradient4132"
       id="radialGradient4177"
       gradientUnits="userSpaceOnUse"
       gradientTransform="translate(0,-6.5338555e-5)"
       cx="235.71426"
       cy="676.29077"
       fx="235.71426"
       fy="676.29077"
       r="51.752811" />
    <radialGradient
       inkscape:collect="always"
       xlink:href="#linearGradient4117"
       id="radialGradient4179"
       gradientUnits="userSpaceOnUse"
       cx="240.41631"
       cy="674.56512"
       fx="240.41631"
       fy="674.56512"
       r="20.197975" />
    <linearGradient
       inkscape:collect="always"
       xlink:href="#linearGradient4181"
       id="linearGradient4187"
       x1="109.01588"
       y1="221.80174"
       x2="150.85715"
       y2="221.80174"
       gradientUnits="userSpaceOnUse" />
    <linearGradient
       inkscape:collect="always"
       xlink:href="#linearGradient4117"
       id="linearGradient4195"
       x1="148.4375"
       y1="245.02245"
       x2="478.71429"
       y2="245.02245"
       gradientUnits="userSpaceOnUse" />
    <linearGradient
       inkscape:collect="always"
       xlink:href="#linearGradient4197"
       id="linearGradient4203"
       x1="303.61154"
       y1="198.83078"
       x2="304.59042"
       y2="387.72931"
       gradientUnits="userSpaceOnUse" />
    <linearGradient
       inkscape:collect="always"
       xlink:href="#linearGradient4209"
       id="linearGradient4217"
       x1="93.649834"
       y1="316.97113"
       x2="476.78693"
       y2="316.97113"
       gradientUnits="userSpaceOnUse" />
    <filter
       inkscape:collect="always"
       id="filter4223"
       color-interpolation-filters="sRGB">
      <feGaussianBlur
         inkscape:collect="always"
         stdDeviation="1.6144466"
         id="feGaussianBlur4225" />
    </filter>
  </defs>
  <sodipodi:namedview
     id="base"
     pagecolor="#ffffff"
     bordercolor="#666666"
     borderopacity="1.0"
     inkscape:pageopacity="0.0"
     inkscape:pageshadow="2"
     inkscape:zoom="0.7"
     inkscape:cx="180.50919"
     inkscape:cy="11.225618"
     inkscape:document-units="px"
     inkscape:current-layer="layer1"
     showgrid="false"
     inkscape:window-width="1614"
     inkscape:window-height="1026"
     inkscape:window-x="66"
     inkscape:window-y="24"
     inkscape:window-maximized="1"
     fit-margin-top="5"
     fit-margin-right="5"
     fit-margin-bottom="5"
     fit-margin-left="5" />
  <metadata
     id="metadata7">
    <rdf:RDF>
      <cc:Work
         rdf:about="">
        <dc:format>image/svg+xml</dc:format>
        <dc:type
           rdf:resource="http://purl.org/dc/dcmitype/StillImage" />
        <dc:title>Voiture Citro  n DS4</dc:title>
        <dc:date>27/11/11</dc:date>
        <dc:creator>
          <cc:Agent>
            <dc:title>Coudurier Olivier</dc:title>
          </cc:Agent>
        </dc:creator>
        <dc:rights>
          <cc:Agent>
            <dc:title>Libre</dc:title>
          </cc:Agent>
        </dc:rights>
        <cc:license
           rdf:resource="http://creativecommons.org/licenses/publicdomain/" />
        <dc:subject>
          <rdf:Bag>
            <rdf:li>Citro  n</rdf:li>
            <rdf:li>voiture</rdf:li>
            <rdf:li>car</rdf:li>
            <rdf:li>DS4</rdf:li>
            <rdf:li>automobile</rdf:li>
            <rdf:li>v  hicule</rdf:li>
          </rdf:Bag>
        </dc:subject>
      </cc:Work>
      <cc:License
         rdf:about="http://creativecommons.org/licenses/publicdomain/">
        <cc:permits
           rdf:resource="http://creativecommons.org/ns#Reproduction" />
        <cc:permits
           rdf:resource="http://creativecommons.org/ns#Distribution" />
        <cc:permits
           rdf:resource="http://creativecommons.org/ns#DerivativeWorks" />
      </cc:License>
    </rdf:RDF>
  </metadata>
  <g
     inkscape:label="Calque 1"
     inkscape:groupmode="layer"
     id="layer1"
     transform="translate(-37.992205,-187.72744)">
    <g
       id="g3115"
       inkscape:export-filename="/home/olivier/Images/Creations/Ds4.png"
       inkscape:export-xdpi="90"
       inkscape:export-ydpi="90">
      <path
         style="fill:url(#linearGradient4030);fill-opacity:1;stroke:#000000;stroke-width:1px;stroke-linecap:butt;stroke-linejoin:miter;stroke-opacity:1"
         d="m 360.66779,202.82389 -5.80838,4.29315 c 46.1676,11.48734 100.39313,39.72589 134.60282,60.35661 4.71045,-1.01195 10.41587,-1.52642 12.62691,-3.78807 -38.82552,-23.71877 -86.07044,-43.54577 -141.42135,-60.86169 z"
         id="path3074"
         inkscape:connector-curvature="0"
         sodipodi:nodetypes="ccccc" />
      <path
         inkscape:connector-curvature="0"
         id="rect3931"
         d="m 292.34375,208.59375 c -46.17169,0.01 -90.56859,8.49027 -136.28125,14.4375 C 129.27685,252.64276 140.30733,254.66519 145.96875,270 l 324.25,15.65625 c 6.07529,-3.76261 9.79103,-8.95509 2.53125,-20.71875 -66.36488,-44.0426 -124.6818,-56.35581 -180.40625,-56.34375 z m -27.6875,8.5 c 2.84822,0.022 5.70896,0.1336 8.59375,0.375 8.04711,1.49285 8.45987,4.25077 8.59375,7.0625 -9.88595,8.1255 -14.19078,18.64964 -14.65625,30.8125 l -50,-1 -13.65625,-21.71875 3.03125,-5.5625 c 19.03696,-5.24978 38.15622,-10.1224 58.09375,-9.96875 z m 54.0625,1.375 c 28.21085,1.69497 56.69405,4.46675 88.875,20.71875 l 0.5,8.59375 -4.03125,-0.5 -8.59375,16.65625 -71.21875,-5.0625 -8.5625,-31.3125 c -1.6904,-9.33174 0.80596,-8.89862 3.03125,-9.09375 z m 100,27.78125 10.59375,5.5625 -8.09375,0 -2.5,-5.5625 z m -12.625,10.125 1.5,7.5625 -5.5625,0.5 4.0625,-8.0625 z"
         style="fill:#000000;fill-opacity:1;stroke:#000000;stroke-width:1;stroke-linecap:round;stroke-linejoin:round;stroke-miterlimit:4;stroke-opacity:1" />
      <path
         inkscape:connector-curvature="0"
         id="path3077"
         d="m 81.785714,375.93361 107.857146,9.28571 278.57143,2.14286 115.35714,1.07143 13.57143,-61.42857 L 502.85714,295.57647 84.642857,297.71932 72.5,374.50504 z"
         style="fill:#000000;stroke:#000000;stroke-width:1px;stroke-linecap:butt;stroke-linejoin:miter;stroke-opacity:1" />
      <path
         sodipodi:nodetypes="ccscc"
         inkscape:connector-curvature="0"
         id="path3883"
         d="m 417.47654,241.07716 10.85915,34.34519 c 0,0 28.03173,2.52538 27.52665,1.26269 -0.50507,-1.26269 -4.04061,-15.65737 -4.04061,-15.65737 -14.29022,-11.20944 -28.85766,-19.34539 -34.34519,-19.95051 z"
         style="fill:url(#linearGradient4034);fill-opacity:1;stroke:#000000;stroke-width:1px;stroke-linecap:butt;stroke-linejoin:miter;stroke-opacity:1" />
      <path
         inkscape:connector-curvature="0"
         id="path3031"
         d="M 283.59375,196.875 C 246.47957,197.12025 202.9918,200.96023 150,208.375 L 139.40625,230.09375 117.1875,220.5 l -5.125,4.5625 16.5,9.09375 -37.5,21.78125 -13.5625,0 5.625,-5.28125 -5.84375,5.1875 c -7.961079,2.47636 -15.103053,11.51059 -21.71875,24.75 l 2.03125,2.53125 C 55.262431,291.9709 53.122974,300.21663 49.5,312.9375 L 49,320 l -5.0625,9.09375 c -1.470511,15.69157 1.093113,19.31563 2.03125,27.78125 2.348119,7.33696 5.559518,13.34846 10.59375,16.65625 5.27755,2.02031 11.065134,4.04219 17.6875,6.0625 l 8.0625,1.03125 c -3.548925,-107.46168 130.61197,-82.68725 114.65625,4.53125 l 271.25,2.53125 c -6.66611,-107.92026 133.77992,-94.75703 111.09375,1 20.66268,-1.75933 42.26273,-1.94831 59.09375,-10.09375 5.11462,-1.80405 7.36598,-5.78081 7.09375,-11.625 l -3.5625,-8.0625 c 0.74773,-13.23474 3.2837,-26.92937 -1,-38.90625 l -6.0625,-18.6875 c -10.7443,-17.83198 -38.56815,-29.48205 -119.1875,-37.875 l -7.59375,-2.53125 -5.03125,2.53125 c -2.33182,-1.27318 -4.69378,-2.54501 -7.0625,-3.8125 2.29641,1.34302 4.5721,2.69382 6.8125,4.0625 -2.21104,2.26165 -7.91455,2.7693 -12.625,3.78125 C 455.97781,246.83803 401.7301,218.61234 355.5625,207.125 L 361,203.09375 c -0.29423,-0.0858 -0.58057,-0.19596 -0.875,-0.28125 -22.64321,-4.14731 -47.66467,-6.12825 -76.53125,-5.9375 z m -1.09375,15.5 8.6875,51.9375 L 201.78125,262 c -10.3269,-2.32899 -16.56449,-5.69035 -23.21875,-8.9375 l 2.5,-23.90625 C 211.00196,220.25976 247.50447,212.90891 282.5,212.375 z m 20,1.0625 c 42.16464,-0.25108 76.29113,7.02887 103.21875,21.0625 2.74686,12.81877 6.25469,25.46457 9.28125,38.21875 L 317.15625,265.9375 302.5,213.4375 z m 113.4375,26.5 c 5.48753,0.60512 20.05353,8.75931 34.34375,19.96875 0,0 3.52618,14.39356 4.03125,15.65625 0.50508,1.26269 -27.53125,-1.28125 -27.53125,-1.28125 L 415.9375,239.9375 z"
         style="opacity:0.98000004;fill:url(#linearGradient4203);fill-opacity:1;stroke:#000000;stroke-width:1px;stroke-linecap:butt;stroke-linejoin:miter;stroke-opacity:1" />
      <path
         sodipodi:nodetypes="ccccc"
         inkscape:connector-curvature="0"
         id="path3852"
         d="m 77.142857,255.93361 14.285715,0.35714 C 104.0233,248.9098 116.17819,241.52885 129.64286,234.1479 l -13.21429,-9.28572 c -15.28995,9.25978 -26.190474,20.71429 -39.285713,31.07143 z"
         style="fill:url(#linearGradient4026);fill-opacity:1;stroke:#000000;stroke-width:1px;stroke-linecap:butt;stroke-linejoin:miter;stroke-opacity:1" />
      <path
         sodipodi:nodetypes="cccccc"
         inkscape:connector-curvature="0"
         id="path3854"
         d="m 181.07143,228.79076 -2.5,23.92857 c 6.65426,3.24715 12.88738,6.59958 23.21428,8.92857 l 89.64286,3.57143 L 282.5,212.00504 c -34.99553,0.53391 -71.48911,7.88923 -101.42857,16.78572 z"
         style="fill:url(#linearGradient4028);fill-opacity:1;stroke:#000000;stroke-width:1px;stroke-linecap:butt;stroke-linejoin:miter;stroke-opacity:1" />
      <path
         sodipodi:nodetypes="ccccc"
         inkscape:connector-curvature="0"
         id="path3859"
         d="m 302.14286,213.43361 14.64286,52.5 97.85714,6.78571 c -3.02656,-12.75418 -6.53885,-25.39551 -9.28571,-38.21428 -26.92762,-14.03363 -61.04965,-21.32251 -103.21429,-21.07143 z"
         style="fill:url(#linearGradient4032);fill-opacity:1;stroke:#000000;stroke-width:1px;stroke-linecap:butt;stroke-linejoin:miter;stroke-opacity:1" />
      <path
         inkscape:connector-curvature="0"
         id="path3877"
         d="m 282.5,212.71932 9.28571,54.28572 25.71429,0.71428 -15.71429,-56.42857 z"
         style="opacity:0.98999999;fill:#1a1a1a;stroke:#000000;stroke-width:1px;stroke-linecap:butt;stroke-linejoin:miter;stroke-opacity:1" />
      <path
         inkscape:connector-curvature="0"
         id="path3879"
         d="m 285.62063,212.42034 11.36422,55.30585 c 0,0 17.67767,1.26269 16.92005,0.25254 -0.75761,-1.01015 -17.42513,-56.82108 -17.42513,-56.82108 z"
         style="fill:#000000;stroke:#000000;stroke-width:1px;stroke-linecap:butt;stroke-linejoin:miter;stroke-opacity:1" />
      <g
         id="g3873">
        <path
           style="fill:#1a1a1a;stroke:#000000;stroke-width:1px;stroke-linecap:butt;stroke-linejoin:miter;stroke-opacity:1"
           d="m 181.57492,228.58278 -3.283,25.25381 -20.96066,-15.9099 z"
           id="path3869"
           inkscape:connector-curvature="0" />
        <path
           style="fill:none;stroke:#000000;stroke-width:1px;stroke-linecap:butt;stroke-linejoin:miter;stroke-opacity:1"
           d="m 175.17857,230.93361 -2.5,18.75"
           id="path3871"
           inkscape:connector-curvature="0" />
      </g>
      <path
         inkscape:connector-curvature="0"
         id="path3881"
         d="m 405.87947,235.49545 9.59375,39.125 56.0625,2.53125 c -8.57213,-7.08143 -15.74476,-12.66693 -21.9375,-17.25 0.0729,0.29673 3.50024,14.2506 4,15.5 0.50508,1.26269 -27.53125,-1.28125 -27.53125,-1.28125 L 415.22322,239.7767 c 0.50976,0.0562 1.12229,0.19239 1.78125,0.375 -3.79445,-1.64923 -7.3135,-2.98911 -11.125,-4.65625 z"
         style="fill:#1a1a1a;stroke:#000000;stroke-width:1px;stroke-linecap:butt;stroke-linejoin:miter;stroke-opacity:1" />
      <path
         sodipodi:nodetypes="cccccscc"
         inkscape:connector-curvature="0"
         id="path3893"
         d="m 449.51788,362.93307 -197.73217,-9.49946 c -3.97244,-3.16259 -11.36111,-4.61706 -18.03571,-6.42857 l -2.32143,-2.32143 5.71429,-1.42857 c 0,0 208.21428,13.03571 208.92857,13.03571 1.33224,0 7.27654,3.03572 6.96429,3.03572 -1.01106,1.04064 -2.0403,2.09947 -3.51784,3.6066 z"
         style="fill:#000000;stroke:#000000;stroke-width:1px;stroke-linecap:butt;stroke-linejoin:miter;stroke-opacity:1" />
      <path
         sodipodi:nodetypes="cc"
         inkscape:connector-curvature="0"
         id="path3895"
         d="m 237.32143,342.8979 c 70.53905,2.31476 139.59496,7.5958 208.75,12.67857"
         style="fill:none;stroke:#808080;stroke-width:2;stroke-linecap:round;stroke-linejoin:miter;stroke-miterlimit:4;stroke-opacity:1;stroke-dasharray:none" />
      <path
         sodipodi:nodetypes="ccccc"
         inkscape:connector-curvature="0"
         id="path3897"
         d="m 641.44687,321.01174 c 0,1.01015 1.26269,24.74874 1.26269,24.74874 l 2.77792,-0.25254 c 0.39489,-3.52321 0.27383,-10.14211 0,-17.67767 -0.95857,-2.66114 -2.41225,-4.82718 -4.04061,-6.81853 z"
         style="fill:#000000;stroke:#000000;stroke-width:1px;stroke-linecap:butt;stroke-linejoin:miter;stroke-opacity:1" />
      <path
         inkscape:connector-curvature="0"
         id="path3923"
         d="m 497.14286,268.43361 c 1.42857,1.78571 16.78571,11.07143 16.78571,11.07143 L 630.35714,301.6479 635,300.21932"
         style="fill:none;stroke:#000000;stroke-width:1px;stroke-linecap:butt;stroke-linejoin:miter;stroke-opacity:1" />
      <path
         sodipodi:nodetypes="cccccccccc"
         inkscape:connector-curvature="0"
         id="path3899"
         d="m 559.37197,286.66655 3.283,6.56599 c -1.0096,-1.627 11.82525,8.28303 26.76904,19.95052 6.12057,3.6663 18.89917,4.47916 29.29442,6.31345 l 4.79823,-5.55584 9.09137,0.50508 c -0.09,-2.28159 0.10794,-4.13123 -1.26269,-8.33376 l -8.08122,-6.31345 -20.20305,-6.31346 z"
         style="opacity:0.98000004;fill:url(#radialGradient3960);fill-opacity:1;stroke:#000000;stroke-width:1px;stroke-linecap:butt;stroke-linejoin:miter;stroke-opacity:1" />
      <path
         sodipodi:nodetypes="ccccccc"
         inkscape:connector-curvature="0"
         id="path3901"
         d="m 634.62834,344.24525 c -1.09433,2.40232 -2.18867,4.63541 -3.283,8.33376 l -4.79822,0.50507 -6.31346,10.10153 c -4.88456,1.59653 -10.77281,1.85482 -17.67767,0.75761 1.74646,-6.46085 2.50955,-13.2495 8.08122,-18.43528 7.08738,-2.69505 15.60269,-1.8203 23.99113,-1.26269 z"
         style="fill:#cccccc;stroke:#000000;stroke-width:1px;stroke-linecap:butt;stroke-linejoin:miter;stroke-opacity:1" />
      <path
         style="fill:#000000;stroke:#000000;stroke-width:0.87041396px;stroke-linecap:butt;stroke-linejoin:miter;stroke-opacity:1"
         d="m 632.19313,346.94283 c -0.95252,2.09101 -1.90505,4.03473 -2.85757,7.25382 l -4.17643,0.43962 -5.49533,8.79252 c -4.25159,1.38964 -9.3768,1.61446 -15.38689,0.65943 1.52014,-5.62361 2.18435,-11.53255 7.03401,-16.04632 6.16895,-2.34581 13.5808,-1.58442 20.88221,-1.09907 z"
         id="path3903"
         inkscape:connector-curvature="0"
         sodipodi:nodetypes="ccccccc" />
      <path
         sodipodi:nodetypes="ccaccc"
         inkscape:connector-curvature="0"
         id="path3907"
         d="m 57.142857,358.43361 c -1.212013,1.77495 -0.656431,4.43369 0,7.14286 0,0 2.426439,2.96768 4.107144,3.75 2.884938,1.34286 9.464285,1.25 9.464285,1.25 l -7.5,-10.35715 z"
         style="fill:url(#radialGradient4018);fill-opacity:1;stroke:#000000;stroke-width:1px;stroke-linecap:butt;stroke-linejoin:miter;stroke-opacity:1" />
      <path
         sodipodi:nodetypes="scccccccs"
         inkscape:connector-curvature="0"
         id="path3909"
         d="m 112.67857,277.00504 c -1.04992,3.86638 -14.583332,2.79762 -18.92857,6.07143 -2.004227,4.92067 1.370918,9.07286 2.321429,13.57143 l -30.714286,-3.75 c -0.978136,-2.94242 -2.29786,-6.22643 -3.75,-9.64286 -1.838787,-0.13517 -3.564732,-0.55245 -4.464286,-3.03571 3.859257,-10.46445 9.597438,-14.28391 16.785715,-14.28572 l 24.464285,0.53571 c 0,0 15.154953,7.3347 14.285713,10.53572 z"
         style="fill:url(#radialGradient4010);fill-opacity:1;stroke:#000000;stroke-width:1px;stroke-linecap:butt;stroke-linejoin:miter;stroke-opacity:1" />
      <path
         sodipodi:nodetypes="ccccccc"
         inkscape:connector-curvature="0"
         id="path3911"
         d="m 62.678572,282.71932 c 1.63941,0.15743 3.698021,-0.73315 4.464285,1.60715 l 2.142857,3.21428 22.142858,1.78572 1.071428,4.82143 -26.428571,-2.5 z"
         style="fill:#cccccc;stroke:#000000;stroke-width:1px;stroke-linecap:butt;stroke-linejoin:miter;stroke-opacity:1" />
      <path
         sodipodi:nodetypes="ccc"
         inkscape:connector-curvature="0"
         id="path3913"
         d="m 468.57143,378.07647 c -64.1572,-1.29059 -127.01035,0.0269 -192.85714,-4.64286 -67.64536,-21.49621 -69.121,-45.19719 -93.21429,-110"
         style="fill:none;stroke:#000000;stroke-width:1px;stroke-linecap:butt;stroke-linejoin:miter;stroke-opacity:1" />
      <path
         sodipodi:nodetypes="ccccc"
         inkscape:connector-curvature="0"
         id="path3917"
         d="m 464.28572,280.57647 c 2.3578,5.33399 3.94244,9.89482 5.35714,14.28571 l 0,6.42857 c -0.0775,12.58311 -1.14254,23.19111 -2.14286,33.92857 -6.54088,9.25726 -8.80812,24.08964 -9.64286,42.85715"
         style="fill:none;stroke:#000000;stroke-width:1px;stroke-linecap:butt;stroke-linejoin:miter;stroke-opacity:1" />
      <path
         inkscape:connector-curvature="0"
         id="path3919"
         d="M 468.92857,269.1479 475,260.57647"
         style="fill:none;stroke:#000000;stroke-width:1px;stroke-linecap:butt;stroke-linejoin:miter;stroke-opacity:1" />
      <path
         sodipodi:nodetypes="scccccs"
         inkscape:connector-curvature="0"
         id="path3952"
         d="m 572.7565,297.02061 c -1.75067,-1.49267 4.17124,0.27456 7.3236,1.26269 4.50571,3.95643 11.36768,11.37538 13.96357,11.51216 6.9223,2.44288 15.92007,3.32916 24.67477,4.39775 1.22863,1.36566 0.0442,1.82642 -0.50508,2.52538 -13.53615,-2.12807 -20.61879,-0.93564 -32.04171,-8.25979 -4.96167,-4.79264 -8.94343,-7.62546 -13.41515,-11.43819 z"
         style="opacity:0.14695339;fill:#333333;stroke:none" />
      <path
         inkscape:connector-curvature="0"
         id="path3921"
         d="m 570.35714,331.29075 20,-17.85714"
         style="fill:none;stroke:#000000;stroke-width:1px;stroke-linecap:butt;stroke-linejoin:miter;stroke-opacity:1" />
      <path
         transform="matrix(1.0630678,0,0,1,-2.3428995,4.2857143)"
         d="m 136.42857,274.86218 c 0,5.52285 -4.47715,10 -10,10 -5.52284,0 -10,-4.47715 -10,-10 0,-5.52284 4.47716,-10 10,-10 5.52285,0 10,4.47716 10,10 z"
         sodipodi:ry="10"
         sodipodi:rx="10"
         sodipodi:cy="274.86218"
         sodipodi:cx="126.42857"
         id="path3925"
         style="fill:#d40000;fill-opacity:1;stroke:#000000;stroke-width:0.96988338;stroke-linecap:round;stroke-linejoin:round;stroke-miterlimit:4;stroke-opacity:1;stroke-dasharray:none"
         sodipodi:type="arc" />
      <path
         d="m 346.42856,292.89789 c 0,3.05729 -4.31725,5.53571 -9.64285,5.53571 -5.32561,0 -9.64286,-2.47842 -9.64286,-5.53571 0,-3.05729 4.31725,-5.53572 9.64286,-5.53572 5.3256,0 9.64285,2.47843 9.64285,5.53572 z"
         sodipodi:ry="5.5357141"
         sodipodi:rx="9.6428576"
         sodipodi:cy="292.89789"
         sodipodi:cx="336.78571"
         id="path3927"
         style="fill:url(#radialGradient3976);fill-opacity:1;stroke:none"
         sodipodi:type="arc" />
      <path
         transform="translate(-1.5152288,0.25253814)"
         d="m 622.25395,355.48318 c 0,3.69604 -1.18719,6.69227 -2.65166,6.69227 -1.46446,0 -2.65165,-2.99623 -2.65165,-6.69227 0,-3.69603 1.18719,-6.69226 2.65165,-6.69226 1.46447,0 2.65166,2.99623 2.65166,6.69226 z"
         sodipodi:ry="6.6922607"
         sodipodi:rx="2.6516504"
         sodipodi:cy="355.48318"
         sodipodi:cx="619.60229"
         id="path3946"
         style="fill:#cccccc;fill-opacity:1;stroke:#000000;stroke-width:1;stroke-linecap:round;stroke-linejoin:round;stroke-miterlimit:4;stroke-opacity:1;stroke-dasharray:none"
         sodipodi:type="arc" />
      <path
         sodipodi:nodetypes="cccc"
         inkscape:connector-curvature="0"
         id="path3948"
         d="m 567.20065,292.72747 23.73859,7.82868 c 5.3033,5.62053 10.6066,8.30568 15.9099,10.6066 l 10.6066,2.02031"
         style="opacity:0.43010757;fill:none;stroke:#808080;stroke-width:1px;stroke-linecap:butt;stroke-linejoin:miter;stroke-opacity:1" />
      <path
         inkscape:transform-center-x="2.6951724"
         transform="matrix(0.85088458,0.29095771,-0.25876673,0.95673592,170.73428,-163.22419)"
         d="m 619.47608,304.59677 c 0,3.34735 -4.35301,6.06092 -9.72272,6.06092 -5.36971,0 -9.72272,-2.71357 -9.72272,-6.06092 0,-3.34735 4.35301,-6.06091 9.72272,-6.06091 5.36971,0 9.72272,2.71356 9.72272,6.06091 z"
         sodipodi:ry="6.0609155"
         sodipodi:rx="9.7227182"
         sodipodi:cy="304.59677"
         sodipodi:cx="609.75336"
         id="path3950"
         style="opacity:0.7741935;fill:url(#radialGradient3968);fill-opacity:1;stroke:#808080;stroke-width:1;stroke-linecap:round;stroke-linejoin:round;stroke-miterlimit:4;stroke-opacity:0.43529412;stroke-dasharray:none"
         sodipodi:type="arc" />
      <path
         sodipodi:nodetypes="ccccccccccccc"
         inkscape:connector-curvature="0"
         id="path3929"
         d="m 318.70313,294.11643 c 1.29186,0.83712 4.3334,1.83272 6.81853,2.77792 3.07614,0.0544 5.99107,-0.7198 8.9651,-1.38896 l 10.73287,-0.50508 0.50508,2.39911 c 2.56747,-0.0328 5.13494,-0.84059 7.70241,-1.51523 0.19692,-0.60279 0.56574,-1.03366 0.12627,-2.27284 l -4.54569,-2.0203 -19.44543,-1.38896 -2.39911,-0.50508 c -3.05282,0.13745 -5.55479,-5.3e-4 -9.84899,0.75761 -0.54297,1.37739 -0.55006,2.62081 0.25254,3.66181 z"
         style="fill:#d40000;fill-opacity:1;stroke:#000000;stroke-width:1px;stroke-linecap:butt;stroke-linejoin:miter;stroke-opacity:1" />
      <path
         sodipodi:nodetypes="cc"
         inkscape:connector-curvature="0"
         id="path3978"
         d="m 113.64216,276.05995 c 41.00464,0.92693 78.27648,7.62274 104.55079,31.31473"
         style="opacity:0.07526879;fill:none;stroke:#000000;stroke-width:1px;stroke-linecap:butt;stroke-linejoin:miter;stroke-opacity:1" />
      <path
         inkscape:connector-curvature="0"
         id="path3980"
         d="m 95.964492,295.75793 10.606598,23.73858"
         style="fill:none;stroke:#000000;stroke-width:1px;stroke-linecap:butt;stroke-linejoin:miter;stroke-opacity:1" />
      <path
         sodipodi:nodetypes="ccccc"
         inkscape:connector-curvature="0"
         id="path3982"
         d="m 47.47717,356.87215 16.667517,2.52539 7.071067,12.6269 -16.667517,-2.52538 c -4.147218,-2.86632 -5.538576,-7.79954 -7.071067,-12.62691 z"
         style="fill:none;stroke:#000000;stroke-width:1px;stroke-linecap:butt;stroke-linejoin:miter;stroke-opacity:1" />
      <path
         inkscape:connector-curvature="0"
         id="path3984"
         d="m 44.69925,328.84042 12.374369,4.54569 1.262691,6.56599 7.576144,0.25254 0.505076,8.83883 -16.162441,3.53554"
         style="opacity:0.075;fill:none;stroke:#000000;stroke-width:1px;stroke-linecap:butt;stroke-linejoin:miter;stroke-opacity:1" />
      <path
         sodipodi:nodetypes="ccc"
         inkscape:connector-curvature="0"
         id="path3986"
         d="m 51.770318,308.38483 c 5.548746,-0.0818 8.441067,0.72184 12.121831,1.26269 7.835111,9.28708 8.519485,19.36868 10.606601,29.29443"
         style="opacity:0.075;fill:none;stroke:#000000;stroke-width:1px;stroke-linecap:butt;stroke-linejoin:miter;stroke-opacity:1" />
      <path
         inkscape:connector-curvature="0"
         id="path3988"
         d="m 84.347738,296.01046 -7.828683,52.2754"
         style="opacity:0.075;fill:none;stroke:#000000;stroke-width:1px;stroke-linecap:butt;stroke-linejoin:miter;stroke-opacity:1" />
      <path
         sodipodi:nodetypes="cc"
         inkscape:connector-curvature="0"
         id="path3990"
         d="M 75.256365,379.85312 C 69.802231,285.67752 172.12853,281.11013 203.54574,345.76048"
         style="opacity:0.075;fill:none;stroke:#000000;stroke-width:1px;stroke-linecap:butt;stroke-linejoin:miter;stroke-opacity:1" />
      <path
         sodipodi:nodetypes="cccc"
         inkscape:connector-curvature="0"
         id="path3992"
         d="m 203.21429,345.93361 35.35714,2.85714 38.57143,17.85715 L 455,369.50504"
         style="opacity:0.075;fill:none;stroke:#000000;stroke-width:1px;stroke-linecap:butt;stroke-linejoin:miter;stroke-opacity:1" />
      <path
         sodipodi:nodetypes="ccc"
         inkscape:connector-curvature="0"
         id="path3996"
         d="m 640.35714,322.36218 c -0.39096,-1.40603 -19.09409,-6.08012 -19.64285,-5.71428 -5.11905,15.2759 -10.2381,25.35437 -15.35715,37.14285"
         style="opacity:0.075;fill:none;stroke:#000000;stroke-width:1px;stroke-linecap:butt;stroke-linejoin:miter;stroke-opacity:1" />
      <path
         sodipodi:nodetypes="cc"
         inkscape:connector-curvature="0"
         id="path3998"
         d="m 635.35714,371.29075 c -0.0333,0.32821 -34.07168,2.69727 -36.42857,2.14286"
         style="opacity:0.075;fill:none;stroke:#000000;stroke-width:1px;stroke-linecap:butt;stroke-linejoin:miter;stroke-opacity:1" />
      <path
         sodipodi:nodetypes="cc"
         inkscape:connector-curvature="0"
         id="path4002"
         d="m 515.35714,267.71932 c 36.28473,2.79803 62.85918,9.64201 87.85715,17.14286"
         style="opacity:0.075;fill:none;stroke:#000000;stroke-width:1px;stroke-linecap:butt;stroke-linejoin:miter;stroke-opacity:1" />
      <path
         sodipodi:nodetypes="ccccc"
         inkscape:connector-curvature="0"
         id="path3847"
         d="m 129.28571,234.50504 c -6.32478,-6.28074 -24.58643,-10.00359 -18.57142,-18.92857 13.45278,-3.09684 27.09724,-6.96039 39.64285,-6.42857 l -12.14285,21.07142 z"
         style="fill:url(#linearGradient4187);fill-opacity:1;stroke:#000000;stroke-width:1px;stroke-linecap:butt;stroke-linejoin:miter;stroke-opacity:1" />
      <path
         sodipodi:nodetypes="scccccccssscccss"
         inkscape:connector-curvature="0"
         id="path3864"
         d="m 291.28125,208.75 c -1.84547,8.8e-4 -3.68875,-0.001 -5.5625,0.0312 -46.778,1.1317 -95.12691,8.56089 -136.78125,28.59375 8.86882,9.34547 18.99379,17.41692 30.71875,23.90625 2.7737,7.53541 89.91574,7.28027 126.40625,8.21875 52.70369,3.75928 106.02029,6.32401 157.875,11.78125 5.52975,0.17261 9.39185,-1.31351 13.5625,-2.5 0.95238,-1.07143 0.95238,-2.35863 0,-3.90625 -9.75258,-4.5123 -69.95386,-66.18043 -186.21875,-66.125 z m 5.625,4.34375 c 111.99141,-0.0384 165.46745,58.92812 174.40625,62.8125 -40.61097,-2.41696 -209.59926,-12.95092 -283.71875,-17.1875 -10.91994,-5.67639 -20.83385,-12.26277 -29.09375,-20.4375 39.80457,-19.29105 83.80871,-23.97882 127.375,-24.96875 3.73486,-0.12781 7.41862,-0.21751 11.03125,-0.21875 z"
         style="fill:url(#linearGradient4195);fill-opacity:1;stroke:#000000;stroke-width:1px;stroke-linecap:butt;stroke-linejoin:miter;stroke-opacity:1" />
      <path
         sodipodi:nodetypes="cccccccc"
         inkscape:connector-curvature="0"
         id="path4207"
         d="m 114.14724,279.59549 c 113.51327,36.43459 233.11784,34.23675 351.02801,41.92133 l 11.11168,5.05076 c -8.39289,3.92236 -12.70854,15.99919 -17.1726,27.77919 l -251.02291,-15.65736 -49.49747,-33.33504 -57.5787,7.07107 c -5.262958,-15.53184 -17.415406,-32.6454 13.13199,-32.82995 z"
         style="opacity:0.08960571;fill:url(#linearGradient4217);fill-opacity:1;stroke:none;filter:url(#filter4223)" />
      <g
         transform="translate(-1.5152288,-301.53053)"
         id="g4044">
        <path
           style="fill:#d40000;fill-opacity:1;stroke:#000000;stroke-width:1px;stroke-linecap:butt;stroke-linejoin:miter;stroke-opacity:1"
           d="m 445.625,586.82647 c -0.37972,1.43396 -0.71229,2.90328 -2.94643,2.94642 l -17.32143,-2.05356 -1.78571,-10 -9.46429,0.0893 c -1.63384,-3.58663 -1.87784,-7.93136 -0.89286,-12.94644 2.99726,-7.61213 7.41999,-7.38441 11.78572,-8.21428 11.40834,1.94543 13.49574,6.75005 16.875,11.96429 1.17135,2.56027 1.01572,5.00012 -0.44643,7.32142 l -2.85714,0.35715 z"
           id="path3905"
           inkscape:connector-curvature="0"
           sodipodi:nodetypes="ccccccccccc" />
        <path
           style="fill:#1a1a1a;stroke:none"
           d="m 413.66071,570.84432 c 0.89286,0.0893 27.32143,3.21429 27.32143,3.21429 -0.94641,1.45833 -2.02237,2.91667 -2.05357,4.375 -3.81223,1.33657 -9.5943,0.70332 -14.46428,0.98214 l -0.71429,-1.60714 -9.82143,-0.17857 c -0.18619,-2.39757 -1.14066,-5.87074 -0.26786,-6.78572 z"
           id="path4036"
           inkscape:connector-curvature="0"
           sodipodi:nodetypes="ccccccc" />
        <path
           style="fill:#d6d1d1;fill-opacity:1;stroke:#000000;stroke-width:1px;stroke-linecap:butt;stroke-linejoin:miter;stroke-opacity:1"
           d="m 426.25,582.00504 c 0.35714,0.0893 11.78572,1.07143 11.78572,1.07143 2.05593,0.79966 1.99955,1.29756 2.5,1.875 0.29959,1.4603 -0.3565,1.96493 -0.71429,2.76785 l -10.53571,-0.89285 c -1.47771,-0.007 -2.04518,-0.62068 -2.85715,-1.07143 l -0.89285,-3.125 z"
           id="path4038"
           inkscape:connector-curvature="0"
           sodipodi:nodetypes="cccccccc" />
      </g>
      <path
         sodipodi:nodetypes="ccacccc"
         inkscape:connector-curvature="0"
         id="path4049"
         d="m 171.72593,205.09674 13.13198,-1.76777 c 0,0 -1.49853,-1.79516 -2.52538,-2.27284 -2.77408,-1.29046 -9.09137,-1.26269 -9.09137,-1.26269 l -6.31346,-6.566 5.05077,7.82869 z"
         style="fill:#000000;stroke:#000000;stroke-width:1px;stroke-linecap:butt;stroke-linejoin:miter;stroke-opacity:1" />
      <path
         inkscape:connector-curvature="0"
         id="path4053"
         d="m 80.6117,252.77995 -4.79822,-5.05077 2.52538,-2.77792 4.04061,3.03046 1.26269,1.76777 z"
         style="fill:#000000;stroke:#000000;stroke-width:1px;stroke-linecap:butt;stroke-linejoin:miter;stroke-opacity:1" />
      <g
         transform="translate(288.57143,-304.28571)"
         id="g4142">
        <path
           style="fill:url(#radialGradient4177);fill-opacity:1;stroke:#000000;stroke-width:1.25563252;stroke-linecap:round;stroke-linejoin:round;stroke-miterlimit:4;stroke-opacity:1;stroke-dasharray:none"
           d="m 235.71428,625.16578 c -28.23401,0 -51.125,22.891 -51.125,51.125 0,28.234 22.89099,51.125 51.125,51.125 28.234,0 51.12499,-22.891 51.12499,-51.125 0,-28.234 -22.891,-51.125 -51.125,-51.125 z m 0,13.25 c 20.92021,0 37.87499,16.95479 37.87499,37.875 0,20.92021 -16.95479,37.875 -37.875,37.875 -20.92021,0 -37.875,-16.95479 -37.875,-37.875 0,-20.92021 16.95479,-37.875 37.875,-37.875 z"
           id="path4127"
           inkscape:connector-curvature="0" />
        <path
           sodipodi:type="arc"
           style="fill:url(#radialGradient4179);fill-opacity:1;stroke:#000000;stroke-width:1;stroke-linecap:round;stroke-linejoin:round;stroke-miterlimit:4;stroke-opacity:1;stroke-dasharray:none"
           id="path4115"
           sodipodi:cx="240.41631"
           sodipodi:cy="674.56512"
           sodipodi:rx="19.697975"
           sodipodi:ry="19.697975"
           d="m 260.11428,674.56512 c 0,10.8789 -8.81908,19.69798 -19.69797,19.69798 -10.8789,0 -19.69798,-8.81908 -19.69798,-19.69798 0,-10.87889 8.81908,-19.69797 19.69798,-19.69797 10.87889,0 19.69797,8.81908 19.69797,19.69797 z"
           transform="matrix(1.0530463,0,0,1.0530463,-17.455226,-34.057533)" />
        <path
           id="path4103"
           d="m 235.42737,640.56754 c -19.81919,0 -35.9,16.05198 -35.9,35.87117 0,19.81918 16.08081,35.89999 35.9,35.89999 19.81919,0 35.87116,-16.08081 35.87116,-35.89999 0,-19.81919 -16.05197,-35.87117 -35.87116,-35.87117 z m -2.76819,5.44988 c 5.66048,3.12468 7.19227,8.39497 7.17999,13.8698 -1.10922,3.94533 -1.79027,9.00057 -3.86393,10.49606 l -1.78779,-2.3645 c -1.90551,-1.16869 -4.03174,-2.63981 -5.47872,-3.14305 l -8.21807,-14.96554 c 2.98531,-0.8672 4.31975,-2.90765 12.16852,-3.89277 z m 16.32079,1.09574 c 3.0186,0.1048 5.14993,2.35908 7.20885,4.32531 -7.91271,7.91105 -8.57964,5.65416 -13.7833,15.54225 -0.57998,-1.16971 4.61505,-19.2071 5.96892,-19.83872 0.20939,-0.0128 0.40429,-0.0358 0.60553,-0.0289 z m -31.71886,2.99888 c 4.95268,12.1334 3.03157,10.66543 10.87092,18.62763 -1.29062,0.1972 -17.3992,-10.71557 -17.58956,-12.19735 0.82359,-3.25385 5.31247,-5.02096 6.71864,-6.43028 z m 40.7155,3.54674 c 1.70535,2.5992 4.04952,3.28231 7.29534,10.49607 -1.32532,6.32837 -5.92205,9.36199 -11.15928,10.95743 -4.09713,0.0978 -9.0921,0.9089 -11.13044,-0.63438 l 1.70128,-2.39333 c 0.55782,-2.16464 1.35664,-4.61098 1.41294,-6.14193 l 11.88016,-12.28386 z m -44.11808,13.84096 c 1.97906,-0.0528 3.98839,0.26647 5.96892,0.8074 3.5184,2.10164 8.2103,4.09554 9.11197,6.48795 l -2.73936,1.09574 c -1.62601,1.53391 -3.60563,3.20427 -4.46948,4.46948 l -16.58031,4.03694 c -0.057,-3.10818 -1.70558,-4.94055 -0.60555,-12.77405 2.80953,-2.90458 6.01539,-4.03546 9.31381,-4.12346 z m 46.54024,11.53414 c 3.60915,-0.0329 6.57938,0.0967 6.97816,0.4902 0.2041,4.22312 -0.75995,5.38705 -1.26876,8.62177 -11.37974,-6.5 -10.30654,-5.20419 -20.06939,-7.95855 0.55915,-0.5943 8.34475,-1.09856 14.35999,-1.15342 z m -34.16988,1.06691 c -0.0663,1.30392 -14.71565,15.16341 -16.20546,15.05205 -2.19962,-1.23848 -3.42855,-3.79538 -4.20996,-8.13157 12.88127,-2.41273 11.03998,-0.84157 20.41542,-6.92048 z m 14.53301,2.33566 2.73936,1.09574 c 2.23533,0.0109 4.78797,0.17614 6.28611,-0.14417 l 14.82136,8.50642 c -2.10252,2.28987 -2.19163,4.74655 -8.39108,9.65984 -6.46025,0.26452 -10.52157,-3.47322 -13.35077,-8.16039 -1.09803,-3.94848 -3.1022,-8.60328 -2.10498,-10.95744 z m -9.34264,0.66322 0.14418,2.9412 c 0.90607,2.04348 1.80444,4.44523 2.71051,5.68056 l -1.70128,17.01285 c -2.95034,-0.97959 -5.23284,-0.0492 -12.25502,-3.69092 -2.88847,-5.7846 -1.15549,-11.01201 1.96081,-15.51341 3.15181,-2.61956 6.58472,-6.37529 9.1408,-6.43028 z m 3.86393,3.95043 c 1.23487,0.4239 9.91894,17.71678 9.40032,19.11784 -3.39223,1.51207 -4.54574,2.21353 -8.36225,2.42217 1.23979,-13.04652 2.21418,-10.85005 -1.03807,-21.54001 z"
           style="fill:#4d4d4d;fill-opacity:1;stroke:#000000;stroke-width:0.73247707"
           inkscape:connector-curvature="0" />
        <path
           style="fill:#b3b3b3;fill-opacity:1;stroke:#000000;stroke-width:0.79381442"
           d="m 235.7299,637.40015 c -21.47884,0 -38.90625,17.39616 -38.90625,38.875 0,21.47884 17.42741,38.90625 38.90625,38.90625 21.47884,0 38.875,-17.42741 38.875,-38.90625 0,-21.47884 -17.39616,-38.875 -38.875,-38.875 z m -3,5.90625 c 6.1345,3.38634 7.79455,9.09796 7.78125,15.03125 -1.20212,4.27571 -1.94019,9.75428 -4.1875,11.375 l -1.9375,-2.5625 c -2.06507,-1.26656 -4.36935,-2.86088 -5.9375,-3.40625 l -8.90625,-16.21875 c 3.23529,-0.93982 4.68148,-3.15113 13.1875,-4.21875 z m 17.6875,1.1875 c 3.27137,0.11357 5.58118,2.55663 7.8125,4.6875 -8.57531,8.57352 -9.29808,6.12765 -14.9375,16.84375 -0.62855,-1.26765 5.00151,-20.81549 6.46875,-21.5 0.22693,-0.0138 0.43816,-0.0388 0.65625,-0.0312 z m -34.375,3.25 c 5.36742,13.14945 3.28544,11.55855 11.78125,20.1875 -1.3987,0.21372 -18.8562,-11.61289 -19.0625,-13.21875 0.89256,-3.52633 5.75733,-5.44141 7.28125,-6.96875 z m 44.125,3.84375 c 1.84817,2.81685 4.38863,3.55716 7.90625,11.375 -1.43629,6.85831 -6.41796,10.14596 -12.09375,11.875 -4.44022,0.10603 -9.85347,0.98501 -12.0625,-0.6875 l 1.84375,-2.59375 c 0.60453,-2.3459 1.47025,-4.99709 1.53125,-6.65625 l 12.875,-13.3125 z m -47.8125,15 c 2.14478,-0.0572 4.32237,0.28878 6.46875,0.875 3.81303,2.27763 8.89783,4.43851 9.875,7.03125 l -2.96875,1.1875 c -1.76218,1.66236 -3.90757,3.47259 -4.84375,4.84375 l -17.96875,4.375 c -0.0618,-3.36847 -1.8484,-5.35428 -0.65625,-13.84375 3.0448,-3.14781 6.51912,-4.37339 10.09375,-4.46875 z m 50.4375,12.5 c 3.91138,-0.0357 7.13034,0.1048 7.5625,0.53125 0.2212,4.57676 -0.82358,5.83816 -1.375,9.34375 -12.33268,-7.04431 -11.1696,-5.63999 -21.75,-8.625 0.60598,-0.64407 9.04354,-1.19055 15.5625,-1.25 z m -37.03125,1.15625 c -0.0718,1.41311 -15.94794,16.43319 -17.5625,16.3125 -2.38382,-1.34219 -3.71566,-4.1132 -4.5625,-8.8125 13.95994,-2.61478 11.96446,-0.91204 22.125,-7.5 z m 15.75,2.53125 2.96875,1.1875 c 2.42251,0.0118 5.18891,0.19089 6.8125,-0.15625 l 16.0625,9.21875 c -2.27859,2.48162 -2.37516,5.14402 -9.09375,10.46875 -7.00123,0.28666 -11.40264,-3.76407 -14.46875,-8.84375 -1.18998,-4.27911 -3.36198,-9.3237 -2.28125,-11.875 z m -10.125,0.71875 0.15625,3.1875 c 0.98195,2.2146 1.95555,4.81747 2.9375,6.15625 l -1.84375,18.4375 c -3.1974,-1.06162 -5.67103,-0.0533 -13.28125,-4 -3.13035,-6.269 -1.25225,-11.93415 2.125,-16.8125 3.41575,-2.83892 7.13613,-6.90915 9.90625,-6.96875 z m 4.1875,4.28125 c 1.33828,0.45939 10.74954,19.20037 10.1875,20.71875 -3.67629,1.6387 -4.9264,2.39889 -9.0625,2.625 1.3436,-14.13902 2.39959,-11.75863 -1.125,-23.34375 z"
           id="path4057"
           inkscape:connector-curvature="0" />
        <path
           sodipodi:type="arc"
           style="fill:#4d4d4d;fill-opacity:1;stroke:#000000;stroke-width:1;stroke-linecap:round;stroke-linejoin:round;stroke-miterlimit:4;stroke-opacity:1;stroke-dasharray:none"
           id="path4105"
           sodipodi:cx="234.82143"
           sodipodi:cy="668.61218"
           sodipodi:rx="1.9642857"
           sodipodi:ry="1.9642857"
           d="m 236.78571,668.61218 c 0,1.08485 -0.87944,1.96429 -1.96428,1.96429 -1.08485,0 -1.96429,-0.87944 -1.96429,-1.96429 0,-1.08484 0.87944,-1.96428 1.96429,-1.96428 1.08484,0 1.96428,0.87944 1.96428,1.96428 z"
           transform="translate(-0.71428572,-1.4285714)" />
        <path
           d="m 236.78571,668.61218 c 0,1.08485 -0.87944,1.96429 -1.96428,1.96429 -1.08485,0 -1.96429,-0.87944 -1.96429,-1.96429 0,-1.08484 0.87944,-1.96428 1.96429,-1.96428 1.08484,0 1.96428,0.87944 1.96428,1.96428 z"
           sodipodi:ry="1.9642857"
           sodipodi:rx="1.9642857"
           sodipodi:cy="668.61218"
           sodipodi:cx="234.82143"
           id="path4107"
           style="fill:#4d4d4d;fill-opacity:1;stroke:#000000;stroke-width:1;stroke-linecap:round;stroke-linejoin:round;stroke-miterlimit:4;stroke-opacity:1;stroke-dasharray:none"
           sodipodi:type="arc"
           transform="translate(3.9285715,16.785714)" />
        <path
           sodipodi:type="arc"
           style="fill:#4d4d4d;fill-opacity:1;stroke:#000000;stroke-width:1;stroke-linecap:round;stroke-linejoin:round;stroke-miterlimit:4;stroke-opacity:1;stroke-dasharray:none"
           id="path4109"
           sodipodi:cx="234.82143"
           sodipodi:cy="668.61218"
           sodipodi:rx="1.9642857"
           sodipodi:ry="1.9642857"
           d="m 236.78571,668.61218 c 0,1.08485 -0.87944,1.96429 -1.96428,1.96429 -1.08485,0 -1.96429,-0.87944 -1.96429,-1.96429 0,-1.08484 0.87944,-1.96428 1.96429,-1.96428 1.08484,0 1.96428,0.87944 1.96428,1.96428 z"
           transform="translate(-7.1428572,9.6428571)" />
        <path
           d="m 236.78571,668.61218 c 0,1.08485 -0.87944,1.96429 -1.96428,1.96429 -1.08485,0 -1.96429,-0.87944 -1.96429,-1.96429 0,-1.08484 0.87944,-1.96428 1.96429,-1.96428 1.08484,0 1.96428,0.87944 1.96428,1.96428 z"
           sodipodi:ry="1.9642857"
           sodipodi:rx="1.9642857"
           sodipodi:cy="668.61218"
           sodipodi:cx="234.82143"
           id="path4111"
           style="fill:#4d4d4d;fill-opacity:1;stroke:#000000;stroke-width:1;stroke-linecap:round;stroke-linejoin:round;stroke-miterlimit:4;stroke-opacity:1;stroke-dasharray:none"
           sodipodi:type="arc"
           transform="translate(10,4.2857143)" />
        <path
           sodipodi:type="arc"
           style="fill:#1a1a1a;fill-opacity:1;stroke:#000000;stroke-width:1;stroke-linecap:round;stroke-linejoin:round;stroke-miterlimit:4;stroke-opacity:1;stroke-dasharray:none"
           id="path4113"
           sodipodi:cx="235.71428"
           sodipodi:cy="676.29077"
           sodipodi:rx="3.9285715"
           sodipodi:ry="3.9285715"
           d="m 239.64285,676.29077 c 0,2.16969 -1.75888,3.92857 -3.92857,3.92857 -2.16969,0 -3.92857,-1.75888 -3.92857,-3.92857 0,-2.16969 1.75888,-3.92857 3.92857,-3.92857 2.16969,0 3.92857,1.75888 3.92857,3.92857 z" />
      </g>
      <g
         transform="translate(-97.142857,-304.28571)"
         id="g4153">
        <path
           inkscape:connector-curvature="0"
           id="path4155"
           d="m 235.71428,625.16578 c -28.23401,0 -51.125,22.891 -51.125,51.125 0,28.234 22.89099,51.125 51.125,51.125 28.234,0 51.12499,-22.891 51.12499,-51.125 0,-28.234 -22.891,-51.125 -51.125,-51.125 z m 0,13.25 c 20.92021,0 37.87499,16.95479 37.87499,37.875 0,20.92021 -16.95479,37.875 -37.875,37.875 -20.92021,0 -37.875,-16.95479 -37.875,-37.875 0,-20.92021 16.95479,-37.875 37.875,-37.875 z"
           style="fill:url(#radialGradient4173);fill-opacity:1;stroke:#000000;stroke-width:1.25563252;stroke-linecap:round;stroke-linejoin:round;stroke-miterlimit:4;stroke-opacity:1;stroke-dasharray:none" />
        <path
           transform="matrix(1.0530463,0,0,1.0530463,-17.455226,-34.057533)"
           d="m 260.11428,674.56512 c 0,10.8789 -8.81908,19.69798 -19.69797,19.69798 -10.8789,0 -19.69798,-8.81908 -19.69798,-19.69798 0,-10.87889 8.81908,-19.69797 19.69798,-19.69797 10.87889,0 19.69797,8.81908 19.69797,19.69797 z"
           sodipodi:ry="19.697975"
           sodipodi:rx="19.697975"
           sodipodi:cy="674.56512"
           sodipodi:cx="240.41631"
           id="path4157"
           style="fill:url(#radialGradient4175);fill-opacity:1;stroke:#000000;stroke-width:1;stroke-linecap:round;stroke-linejoin:round;stroke-miterlimit:4;stroke-opacity:1;stroke-dasharray:none"
           sodipodi:type="arc" />
        <path
           inkscape:connector-curvature="0"
           style="fill:#4d4d4d;fill-opacity:1;stroke:#000000;stroke-width:0.73247707"
           d="m 235.42737,640.56754 c -19.81919,0 -35.9,16.05198 -35.9,35.87117 0,19.81918 16.08081,35.89999 35.9,35.89999 19.81919,0 35.87116,-16.08081 35.87116,-35.89999 0,-19.81919 -16.05197,-35.87117 -35.87116,-35.87117 z m -2.76819,5.44988 c 5.66048,3.12468 7.19227,8.39497 7.17999,13.8698 -1.10922,3.94533 -1.79027,9.00057 -3.86393,10.49606 l -1.78779,-2.3645 c -1.90551,-1.16869 -4.03174,-2.63981 -5.47872,-3.14305 l -8.21807,-14.96554 c 2.98531,-0.8672 4.31975,-2.90765 12.16852,-3.89277 z m 16.32079,1.09574 c 3.0186,0.1048 5.14993,2.35908 7.20885,4.32531 -7.91271,7.91105 -8.57964,5.65416 -13.7833,15.54225 -0.57998,-1.16971 4.61505,-19.2071 5.96892,-19.83872 0.20939,-0.0128 0.40429,-0.0358 0.60553,-0.0289 z m -31.71886,2.99888 c 4.95268,12.1334 3.03157,10.66543 10.87092,18.62763 -1.29062,0.1972 -17.3992,-10.71557 -17.58956,-12.19735 0.82359,-3.25385 5.31247,-5.02096 6.71864,-6.43028 z m 40.7155,3.54674 c 1.70535,2.5992 4.04952,3.28231 7.29534,10.49607 -1.32532,6.32837 -5.92205,9.36199 -11.15928,10.95743 -4.09713,0.0978 -9.0921,0.9089 -11.13044,-0.63438 l 1.70128,-2.39333 c 0.55782,-2.16464 1.35664,-4.61098 1.41294,-6.14193 l 11.88016,-12.28386 z m -44.11808,13.84096 c 1.97906,-0.0528 3.98839,0.26647 5.96892,0.8074 3.5184,2.10164 8.2103,4.09554 9.11197,6.48795 l -2.73936,1.09574 c -1.62601,1.53391 -3.60563,3.20427 -4.46948,4.46948 l -16.58031,4.03694 c -0.057,-3.10818 -1.70558,-4.94055 -0.60555,-12.77405 2.80953,-2.90458 6.01539,-4.03546 9.31381,-4.12346 z m 46.54024,11.53414 c 3.60915,-0.0329 6.57938,0.0967 6.97816,0.4902 0.2041,4.22312 -0.75995,5.38705 -1.26876,8.62177 -11.37974,-6.5 -10.30654,-5.20419 -20.06939,-7.95855 0.55915,-0.5943 8.34475,-1.09856 14.35999,-1.15342 z m -34.16988,1.06691 c -0.0663,1.30392 -14.71565,15.16341 -16.20546,15.05205 -2.19962,-1.23848 -3.42855,-3.79538 -4.20996,-8.13157 12.88127,-2.41273 11.03998,-0.84157 20.41542,-6.92048 z m 14.53301,2.33566 2.73936,1.09574 c 2.23533,0.0109 4.78797,0.17614 6.28611,-0.14417 l 14.82136,8.50642 c -2.10252,2.28987 -2.19163,4.74655 -8.39108,9.65984 -6.46025,0.26452 -10.52157,-3.47322 -13.35077,-8.16039 -1.09803,-3.94848 -3.1022,-8.60328 -2.10498,-10.95744 z m -9.34264,0.66322 0.14418,2.9412 c 0.90607,2.04348 1.80444,4.44523 2.71051,5.68056 l -1.70128,17.01285 c -2.95034,-0.97959 -5.23284,-0.0492 -12.25502,-3.69092 -2.88847,-5.7846 -1.15549,-11.01201 1.96081,-15.51341 3.15181,-2.61956 6.58472,-6.37529 9.1408,-6.43028 z m 3.86393,3.95043 c 1.23487,0.4239 9.91894,17.71678 9.40032,19.11784 -3.39223,1.51207 -4.54574,2.21353 -8.36225,2.42217 1.23979,-13.04652 2.21418,-10.85005 -1.03807,-21.54001 z"
           id="path4159" />
        <path
           inkscape:connector-curvature="0"
           id="path4161"
           d="m 235.7299,637.40015 c -21.47884,0 -38.90625,17.39616 -38.90625,38.875 0,21.47884 17.42741,38.90625 38.90625,38.90625 21.47884,0 38.875,-17.42741 38.875,-38.90625 0,-21.47884 -17.39616,-38.875 -38.875,-38.875 z m -3,5.90625 c 6.1345,3.38634 7.79455,9.09796 7.78125,15.03125 -1.20212,4.27571 -1.94019,9.75428 -4.1875,11.375 l -1.9375,-2.5625 c -2.06507,-1.26656 -4.36935,-2.86088 -5.9375,-3.40625 l -8.90625,-16.21875 c 3.23529,-0.93982 4.68148,-3.15113 13.1875,-4.21875 z m 17.6875,1.1875 c 3.27137,0.11357 5.58118,2.55663 7.8125,4.6875 -8.57531,8.57352 -9.29808,6.12765 -14.9375,16.84375 -0.62855,-1.26765 5.00151,-20.81549 6.46875,-21.5 0.22693,-0.0138 0.43816,-0.0388 0.65625,-0.0312 z m -34.375,3.25 c 5.36742,13.14945 3.28544,11.55855 11.78125,20.1875 -1.3987,0.21372 -18.8562,-11.61289 -19.0625,-13.21875 0.89256,-3.52633 5.75733,-5.44141 7.28125,-6.96875 z m 44.125,3.84375 c 1.84817,2.81685 4.38863,3.55716 7.90625,11.375 -1.43629,6.85831 -6.41796,10.14596 -12.09375,11.875 -4.44022,0.10603 -9.85347,0.98501 -12.0625,-0.6875 l 1.84375,-2.59375 c 0.60453,-2.3459 1.47025,-4.99709 1.53125,-6.65625 l 12.875,-13.3125 z m -47.8125,15 c 2.14478,-0.0572 4.32237,0.28878 6.46875,0.875 3.81303,2.27763 8.89783,4.43851 9.875,7.03125 l -2.96875,1.1875 c -1.76218,1.66236 -3.90757,3.47259 -4.84375,4.84375 l -17.96875,4.375 c -0.0618,-3.36847 -1.8484,-5.35428 -0.65625,-13.84375 3.0448,-3.14781 6.51912,-4.37339 10.09375,-4.46875 z m 50.4375,12.5 c 3.91138,-0.0357 7.13034,0.1048 7.5625,0.53125 0.2212,4.57676 -0.82358,5.83816 -1.375,9.34375 -12.33268,-7.04431 -11.1696,-5.63999 -21.75,-8.625 0.60598,-0.64407 9.04354,-1.19055 15.5625,-1.25 z m -37.03125,1.15625 c -0.0718,1.41311 -15.94794,16.43319 -17.5625,16.3125 -2.38382,-1.34219 -3.71566,-4.1132 -4.5625,-8.8125 13.95994,-2.61478 11.96446,-0.91204 22.125,-7.5 z m 15.75,2.53125 2.96875,1.1875 c 2.42251,0.0118 5.18891,0.19089 6.8125,-0.15625 l 16.0625,9.21875 c -2.27859,2.48162 -2.37516,5.14402 -9.09375,10.46875 -7.00123,0.28666 -11.40264,-3.76407 -14.46875,-8.84375 -1.18998,-4.27911 -3.36198,-9.3237 -2.28125,-11.875 z m -10.125,0.71875 0.15625,3.1875 c 0.98195,2.2146 1.95555,4.81747 2.9375,6.15625 l -1.84375,18.4375 c -3.1974,-1.06162 -5.67103,-0.0533 -13.28125,-4 -3.13035,-6.269 -1.25225,-11.93415 2.125,-16.8125 3.41575,-2.83892 7.13613,-6.90915 9.90625,-6.96875 z m 4.1875,4.28125 c 1.33828,0.45939 10.74954,19.20037 10.1875,20.71875 -3.67629,1.6387 -4.9264,2.39889 -9.0625,2.625 1.3436,-14.13902 2.39959,-11.75863 -1.125,-23.34375 z"
           style="fill:#b3b3b3;fill-opacity:1;stroke:#000000;stroke-width:0.79381442" />
        <path
           transform="translate(-0.71428572,-1.4285714)"
           d="m 236.78571,668.61218 c 0,1.08485 -0.87944,1.96429 -1.96428,1.96429 -1.08485,0 -1.96429,-0.87944 -1.96429,-1.96429 0,-1.08484 0.87944,-1.96428 1.96429,-1.96428 1.08484,0 1.96428,0.87944 1.96428,1.96428 z"
           sodipodi:ry="1.9642857"
           sodipodi:rx="1.9642857"
           sodipodi:cy="668.61218"
           sodipodi:cx="234.82143"
           id="path4163"
           style="fill:#4d4d4d;fill-opacity:1;stroke:#000000;stroke-width:1;stroke-linecap:round;stroke-linejoin:round;stroke-miterlimit:4;stroke-opacity:1;stroke-dasharray:none"
           sodipodi:type="arc" />
        <path
           transform="translate(3.9285715,16.785714)"
           sodipodi:type="arc"
           style="fill:#4d4d4d;fill-opacity:1;stroke:#000000;stroke-width:1;stroke-linecap:round;stroke-linejoin:round;stroke-miterlimit:4;stroke-opacity:1;stroke-dasharray:none"
           id="path4165"
           sodipodi:cx="234.82143"
           sodipodi:cy="668.61218"
           sodipodi:rx="1.9642857"
           sodipodi:ry="1.9642857"
           d="m 236.78571,668.61218 c 0,1.08485 -0.87944,1.96429 -1.96428,1.96429 -1.08485,0 -1.96429,-0.87944 -1.96429,-1.96429 0,-1.08484 0.87944,-1.96428 1.96429,-1.96428 1.08484,0 1.96428,0.87944 1.96428,1.96428 z" />
        <path
           transform="translate(-7.1428572,9.6428571)"
           d="m 236.78571,668.61218 c 0,1.08485 -0.87944,1.96429 -1.96428,1.96429 -1.08485,0 -1.96429,-0.87944 -1.96429,-1.96429 0,-1.08484 0.87944,-1.96428 1.96429,-1.96428 1.08484,0 1.96428,0.87944 1.96428,1.96428 z"
           sodipodi:ry="1.9642857"
           sodipodi:rx="1.9642857"
           sodipodi:cy="668.61218"
           sodipodi:cx="234.82143"
           id="path4167"
           style="fill:#4d4d4d;fill-opacity:1;stroke:#000000;stroke-width:1;stroke-linecap:round;stroke-linejoin:round;stroke-miterlimit:4;stroke-opacity:1;stroke-dasharray:none"
           sodipodi:type="arc" />
        <path
           transform="translate(10,4.2857143)"
           sodipodi:type="arc"
           style="fill:#4d4d4d;fill-opacity:1;stroke:#000000;stroke-width:1;stroke-linecap:round;stroke-linejoin:round;stroke-miterlimit:4;stroke-opacity:1;stroke-dasharray:none"
           id="path4169"
           sodipodi:cx="234.82143"
           sodipodi:cy="668.61218"
           sodipodi:rx="1.9642857"
           sodipodi:ry="1.9642857"
           d="m 236.78571,668.61218 c 0,1.08485 -0.87944,1.96429 -1.96428,1.96429 -1.08485,0 -1.96429,-0.87944 -1.96429,-1.96429 0,-1.08484 0.87944,-1.96428 1.96429,-1.96428 1.08484,0 1.96428,0.87944 1.96428,1.96428 z" />
        <path
           d="m 239.64285,676.29077 c 0,2.16969 -1.75888,3.92857 -3.92857,3.92857 -2.16969,0 -3.92857,-1.75888 -3.92857,-3.92857 0,-2.16969 1.75888,-3.92857 3.92857,-3.92857 2.16969,0 3.92857,1.75888 3.92857,3.92857 z"
           sodipodi:ry="3.9285715"
           sodipodi:rx="3.9285715"
           sodipodi:cy="676.29077"
           sodipodi:cx="235.71428"
           id="path4171"
           style="fill:#1a1a1a;fill-opacity:1;stroke:#000000;stroke-width:1;stroke-linecap:round;stroke-linejoin:round;stroke-miterlimit:4;stroke-opacity:1;stroke-dasharray:none"
           sodipodi:type="arc" />
      </g>
      <path
         sodipodi:nodetypes="cc"
         inkscape:connector-curvature="0"
         id="path4000"
         d="m 467.5,349.50504 c 5.15123,-50.35327 88.52815,-65.20269 119.28572,-3.57143"
         style="opacity:0.075;fill:none;stroke:#000000;stroke-width:1px;stroke-linecap:butt;stroke-linejoin:miter;stroke-opacity:1" />
      <path
         sodipodi:nodetypes="ccccc"
         inkscape:connector-curvature="0"
         id="path3994"
         d="m 190.59174,272.31886 273.57143,20.71428 c 9.77182,2.29166 14.69422,1.67368 21.42857,2.14286 7.70794,-2.38095 15.71413,-4.76191 22.14286,-7.14286 25.32863,2.69283 49.00566,6.21146 65,13.57143"
         style="opacity:0.075;fill:none;stroke:#000000;stroke-width:1px;stroke-linecap:butt;stroke-linejoin:miter;stroke-opacity:1" />
      <path
         sodipodi:nodetypes="cccccc"
         inkscape:connector-curvature="0"
         id="path3915"
         d="m 306.42857,268.43361 4.64286,15.71429 c 3.52815,20.79005 2.15724,36.68105 2.14286,53.92857 l 2.85714,7.85714 L 315,366.6479 l -2.85714,8.92857"
         style="fill:none;stroke:#000000;stroke-width:1px;stroke-linecap:butt;stroke-linejoin:miter;stroke-opacity:1" />
      <path
         inkscape:connector-curvature="0"
         id="path4227"
         d="m 320.40355,294.24901 c 1.51938,0.68588 3.73291,1.40536 5.625,2.125 3.07614,0.0544 5.99472,-0.70584 8.96875,-1.375 l 10.71875,-0.5 0.5,2.40625 c 2.56747,-0.0328 5.15128,-0.85661 7.71875,-1.53125 0.1176,-0.36 0.28106,-0.67884 0.3125,-1.125 l -33.84375,0 z"
         style="opacity:0.63082437;fill:#800000;fill-opacity:1;stroke:none" />
    </g>
  </g>
</svg>
